<svg width="104" height="143" viewBox="0 0 104 143" fill="none" xmlns="http://www.w3.org/2000/svg">
<path d="M73.342 104.693C72.8062 104.693 72.2704 104.693 71.4667 104.159L62.3582 94.8037C61.8224 94.2691 61.8224 93.7345 61.8224 92.9326C61.8224 92.1308 61.8224 91.8635 62.3582 91.0616L85.9332 68.0746C86.469 67.5401 87.0048 67.5401 87.8084 67.5401C88.3442 67.5401 88.88 67.5401 89.6837 68.0746L99.5959 77.4298C100.132 77.4298 100.132 78.499 100.132 79.3008C100.132 80.1027 100.132 80.37 99.5959 81.1719L75.4852 104.159C74.6815 104.693 74.1457 104.693 73.342 104.693Z" fill="url(#paint0_radial_221_100)"/>
<path d="M99.3277 58.987L80.0391 40.2766C77.0923 37.871 73.3417 36 69.3233 36C65.3048 36 61.0185 37.871 58.0716 40.8112C57 41.3458 57 41.8804 57 42.415C57 42.9495 57 43.4841 57.5358 44.286L84.0576 69.4113C84.5934 69.9459 85.1292 69.9459 85.1292 70.4805C91.0229 76.8954 91.5587 86.2506 86.2008 92.6656L99.0598 80.3702C102.007 77.9646 103.882 73.9552 103.882 69.6786C103.882 65.4019 102.275 61.9272 99.3277 58.987Z" fill="url(#paint1_linear_221_100)"/>
<path d="M76.2888 101.219C70.663 94.804 69.8593 85.1816 75.753 78.7666L62.894 91.062C59.9471 94.0022 58.0718 98.0115 58.0718 102.288C58.0718 106.565 59.9471 110.574 62.894 113.514L91.0232 142.382C91.8269 142.916 92.3626 142.916 92.8984 142.916C93.4342 142.916 93.97 142.916 94.7737 142.382C97.7206 139.442 99.5959 135.432 99.5959 131.156C99.5959 127.146 97.7206 122.87 94.7737 119.929L77.0925 102.288C77.0925 101.754 76.2888 101.754 76.2888 101.219Z" fill="url(#paint2_linear_221_100)"/>
<path d="M35.5232 46.12H23.4272V58.536H14.9792V46.12H2.88315V38.312H14.9792V25.896H23.4272V38.312H35.5232V46.12Z" fill="#EC6060"/>
<defs>
<radialGradient id="paint0_radial_221_100" cx="0" cy="0" r="1" gradientUnits="userSpaceOnUse" gradientTransform="translate(80.9235 86.1221) scale(18.9197 18.8768)">
<stop stop-color="#BF4650"/>
<stop offset="1" stop-color="#9B385B"/>
</radialGradient>
<linearGradient id="paint1_linear_221_100" x1="57" y1="64.4688" x2="104.065" y2="64.4688" gradientUnits="userSpaceOnUse">
<stop stop-color="#E74159"/>
<stop offset="0.514" stop-color="#E8425A"/>
<stop offset="1" stop-color="#F08868"/>
</linearGradient>
<linearGradient id="paint2_linear_221_100" x1="57.7104" y1="110.84" x2="99.2886" y2="110.84" gradientUnits="userSpaceOnUse">
<stop stop-color="#E74159"/>
<stop offset="0.514" stop-color="#E74159"/>
<stop offset="1" stop-color="#F08868"/>
</linearGradient>
</defs>
</svg>
