<svg width="180" height="30" viewBox="0 0 180 30" fill="none" xmlns="http://www.w3.org/2000/svg">
<path d="M25.8087 10.0879C25.4452 10.2857 25.1478 10.5165 24.9164 10.7802V9.65934H22.3389V19.978H24.9825V15C24.9825 14.011 25.2469 13.2527 25.7095 12.7912C26.2052 12.2967 26.8661 12.0659 27.7253 12.0659C27.7914 12.0659 27.8905 12.0659 27.9566 12.0659C28.0558 12.0659 28.1219 12.0659 28.221 12.0989L28.4193 12.1319V9.56044H28.2541C27.2957 9.52747 26.4696 9.72528 25.8087 10.0879Z" fill="white"/>
<path d="M40.9105 10.2198C40.0844 9.75824 39.1261 9.52747 38.0686 9.52747C37.0111 9.52747 36.0528 9.75824 35.2597 10.2198C34.4336 10.6813 33.7727 11.3077 33.31 12.0989C32.8474 12.8901 32.583 13.8132 32.583 14.8352C32.583 15.8571 32.8143 16.7802 33.31 17.5714C33.7727 18.3626 34.4336 18.989 35.2928 19.4506C36.1189 19.9121 37.0772 20.1429 38.1016 20.1429C39.1591 20.1429 40.1174 19.9121 40.9436 19.4506C41.7697 18.989 42.4306 18.3626 42.9263 17.5714C43.389 16.7802 43.6203 15.8571 43.6203 14.8352C43.6203 13.8132 43.389 12.8901 42.9263 12.0989C42.3976 11.3077 41.7367 10.6484 40.9105 10.2198ZM40.8775 14.8352C40.8775 15.4286 40.7453 15.956 40.514 16.4176C40.2827 16.8791 39.9522 17.2088 39.5226 17.4725C39.093 17.7033 38.5973 17.8352 38.0686 17.8352C37.5399 17.8352 37.0772 17.7033 36.6476 17.4725C36.218 17.2418 35.8876 16.8791 35.6563 16.4176C35.3919 15.956 35.2928 15.4286 35.2928 14.8352C35.2928 14.2418 35.4249 13.7143 35.6563 13.2527C35.8876 12.8242 36.2511 12.4615 36.6807 12.2308C37.1103 12 37.5729 11.8681 38.1347 11.8681C38.6965 11.8681 39.1591 12 39.5887 12.2308C40.0183 12.4615 40.3488 12.8242 40.5801 13.2527C40.7453 13.6813 40.8775 14.2088 40.8775 14.8352Z" fill="white"/>
<path d="M56.2437 14.8681C56.2437 15.4945 56.1446 16.022 55.9133 16.4505C55.715 16.8791 55.4176 17.1758 55.021 17.4066C54.6245 17.6044 54.1618 17.7363 53.6662 17.7363C52.9722 17.7363 52.4435 17.5385 52.0469 17.1099C51.6504 16.7143 51.4851 16.0549 51.4851 15.2308V9.65934H48.7754V15.5275C48.7754 16.5494 48.9737 17.4066 49.3372 18.0989C49.7337 18.7912 50.2624 19.2857 50.9234 19.6154C51.5843 19.9451 52.3774 20.1099 53.2366 20.1099C54.0297 20.1099 54.7897 19.9121 55.4506 19.5494C55.7811 19.3846 56.0454 19.1868 56.3098 18.9231V19.9451H58.8874V9.65934H56.2107V14.8681H56.2437Z" fill="white"/>
<path d="M68.2064 6.72527H65.2323V9.2967H63.9766V11.7692H65.2323V16.6154C65.2323 18.8571 66.4219 20.011 68.7351 20.011H70.5527V17.4725H69.1647C68.3716 17.4725 68.2064 17.2088 68.2064 16.6484V11.7692H70.5196V9.2967H68.2064V6.72527Z" fill="white"/>
<path d="M80.1687 9.0989C76.9632 9.0989 74.7822 11.3077 74.7822 14.6374C74.7822 17.9011 76.9963 20.1758 80.1687 20.1758C82.6141 20.1758 84.5307 18.8242 85.1916 16.6154L85.2577 16.4176H82.0853L82.0523 16.5165C81.6888 17.2747 81.0279 17.6703 80.1026 17.6703C78.8468 17.6703 77.9546 16.8791 77.7894 15.5934H85.3568L85.3899 15.4615C85.456 15.1648 85.456 14.8022 85.456 14.4066C85.489 11.2747 83.308 9.0989 80.1687 9.0989ZM77.8555 13.4835C78.0868 12.2967 78.946 11.5714 80.1356 11.5714C81.3914 11.5714 82.3166 12.3297 82.4488 13.4835H77.8555Z" fill="white"/>
<path d="M96.626 9.52747C95.6676 9.52747 94.8415 9.72528 94.1475 10.0879C93.784 10.2857 93.4866 10.5165 93.2553 10.7802V9.65934H90.6777V19.978H93.3214V15C93.3214 14.011 93.5858 13.2527 94.0484 12.7912C94.5441 12.2967 95.205 12.0659 96.0642 12.0659C96.1303 12.0659 96.2294 12.0659 96.2955 12.0659C96.3946 12.0659 96.4607 12.0659 96.5599 12.0989L96.7581 12.1319V9.56044H96.626V9.52747Z" fill="white"/>
<path d="M4.79184 18.956C4.62662 18.956 4.49443 18.956 4.3292 18.7912L1.81773 16.2857C1.68555 16.1538 1.68555 15.989 1.68555 15.8242C1.68555 15.6593 1.68555 15.5275 1.85078 15.3626L8.09642 9.26373C8.26164 9.0989 8.39383 9.0989 8.55906 9.0989C8.72428 9.0989 8.85647 9.0989 9.0217 9.26373L11.6654 11.7692C11.8306 11.7692 11.8306 12.0659 11.8306 12.2308C11.8306 12.3956 11.8306 12.5275 11.6654 12.6923L5.28753 18.7912C5.1223 18.956 4.95707 18.956 4.79184 18.956Z" fill="url(#paint0_radial_192_20046)"/>
<path d="M11.8965 6.42857L6.44391 1.15385C5.61777 0.494506 4.6264 0 3.4698 0C2.3132 0 1.18965 0.527472 0.330457 1.31868C0.0330457 1.61538 0 1.71429 0 1.87912C0 2.04396 0 2.14286 0.165229 2.30769L7.60051 9.39561C7.76574 9.56044 7.76574 9.56044 7.93097 9.72528C9.58326 11.5385 9.74848 14.1758 8.26143 15.989L11.8965 12.5275C12.7226 11.8681 13.2183 10.7143 13.2183 9.56044C13.2183 8.40659 12.7226 7.25275 11.8965 6.42857Z" fill="url(#paint1_linear_192_20046)"/>
<path d="M5.61739 18.6264C3.96511 16.8132 3.63465 13.8462 5.28693 12.033L1.65191 15.4945C0.825764 16.3187 0.330078 17.4725 0.330078 18.6264C0.330078 19.7802 0.825764 20.9341 1.65191 21.7582L9.58288 29.8352C9.74811 30 9.91333 30 10.0786 30C10.2438 30 10.409 30 10.5742 29.8352C11.4004 29.011 11.8961 27.8571 11.8961 26.7033C11.8961 25.5495 11.4004 24.3956 10.5742 23.5714L5.61739 18.6264C5.61739 18.7912 5.61739 18.4615 5.61739 18.6264Z" fill="url(#paint2_linear_192_20046)"/>
<path d="M108.56 8.92C109.84 8.92 110.887 9.32 111.7 10.12C112.513 10.9067 112.92 12.08 112.92 13.64V20H112.04V13.7C112.04 12.4067 111.713 11.42 111.06 10.74C110.407 10.0467 109.52 9.7 108.4 9.7C107.227 9.7 106.287 10.0733 105.58 10.82C104.887 11.5667 104.54 12.6733 104.54 14.14V20H103.64V5.2H104.54V11.44C104.847 10.6267 105.36 10.0067 106.08 9.58C106.8 9.14 107.627 8.92 108.56 8.92ZM125.441 9.14V20H124.541V17.64C124.234 18.4667 123.721 19.1 123.001 19.54C122.294 19.9667 121.481 20.18 120.561 20.18C119.268 20.18 118.208 19.7867 117.381 19C116.568 18.2 116.161 17.02 116.161 15.46V9.14H117.041V15.4C117.041 16.6933 117.368 17.6867 118.021 18.38C118.674 19.06 119.561 19.4 120.681 19.4C121.854 19.4 122.788 19.0267 123.481 18.28C124.188 17.5333 124.541 16.4267 124.541 14.96V9.14H125.441ZM129.782 12C130.115 11.12 130.682 10.4 131.482 9.84C132.282 9.28 133.249 9 134.382 9C135.395 9 136.295 9.22667 137.082 9.68C137.882 10.1333 138.502 10.78 138.942 11.62C139.395 12.46 139.622 13.44 139.622 14.56C139.622 15.68 139.395 16.6667 138.942 17.52C138.502 18.36 137.882 19.0133 137.082 19.48C136.295 19.9333 135.395 20.16 134.382 20.16C133.249 20.16 132.275 19.88 131.462 19.32C130.662 18.76 130.102 18.04 129.782 17.16V20H128.882V5.2H129.782V12ZM138.702 14.56C138.702 13.5733 138.515 12.72 138.142 12C137.769 11.28 137.242 10.7333 136.562 10.36C135.895 9.97333 135.122 9.78 134.242 9.78C133.402 9.78 132.642 9.98 131.962 10.38C131.282 10.7667 130.749 11.3267 130.362 12.06C129.975 12.78 129.782 13.6133 129.782 14.56C129.782 15.52 129.975 16.3667 130.362 17.1C130.749 17.82 131.282 18.38 131.962 18.78C132.642 19.1667 133.402 19.36 134.242 19.36C135.122 19.36 135.895 19.1667 136.562 18.78C137.242 18.3933 137.769 17.84 138.142 17.12C138.515 16.4 138.702 15.5467 138.702 14.56Z" fill="white"/>
<defs>
<radialGradient id="paint0_radial_192_20046" cx="0" cy="0" r="1" gradientUnits="userSpaceOnUse" gradientTransform="translate(6.78708 14.016) scale(5.03128 5.0193)">
<stop stop-color="#BF4650"/>
<stop offset="1" stop-color="#9B385B"/>
</radialGradient>
<linearGradient id="paint1_linear_192_20046" x1="0" y1="7.99724" x2="13.2229" y2="7.99724" gradientUnits="userSpaceOnUse">
<stop stop-color="#E74159"/>
<stop offset="0.514" stop-color="#E8425A"/>
<stop offset="1" stop-color="#F08868"/>
</linearGradient>
<linearGradient id="paint2_linear_192_20046" x1="0.199118" y1="21.0237" x2="11.8803" y2="21.0237" gradientUnits="userSpaceOnUse">
<stop stop-color="#E74159"/>
<stop offset="0.514" stop-color="#E74159"/>
<stop offset="1" stop-color="#F08868"/>
</linearGradient>
</defs>
</svg>
