<svg width="20" height="20" viewBox="0 0 20 20" fill="none" xmlns="http://www.w3.org/2000/svg">
<g clip-path="url(#clip0_265_13348)">
<g clip-path="url(#clip1_265_13348)">
<path d="M9.99989 19.9998C15.5227 19.9998 19.9998 15.5227 19.9998 9.99989C19.9998 4.47711 15.5227 0 9.99989 0C4.47711 0 0 4.47711 0 9.99989C0 15.5227 4.47711 19.9998 9.99989 19.9998Z" fill="#3E3E5E"/>
<path d="M10.0003 18.9488C14.9424 18.9488 18.9488 14.9424 18.9488 10.0003C18.9488 5.05815 14.9424 1.05176 10.0003 1.05176C5.05815 1.05176 1.05176 5.05815 1.05176 10.0003C1.05176 14.9424 5.05815 18.9488 10.0003 18.9488Z" fill="#282841" stroke="#323250" stroke-width="0.042215" stroke-miterlimit="10"/>
<path d="M13.3824 7.24066C13.3834 7.53806 13.3239 7.83255 13.2076 8.10625C13.0912 8.37995 12.9205 8.62714 12.7057 8.8328L10.8509 10.6198C11.6178 9.67753 11.584 8.28675 10.7243 7.38546C10.6607 7.31906 10.5933 7.2564 10.5225 7.19782L6.72569 3.53988C6.69248 3.50794 6.6659 3.46976 6.64746 3.42754C6.62902 3.38531 6.61909 3.33986 6.61823 3.2938C6.61736 3.24773 6.62559 3.20194 6.64244 3.15906C6.65928 3.11617 6.68441 3.07702 6.7164 3.04386C6.92413 2.82819 7.17232 2.65557 7.44679 2.53584C7.72125 2.41612 8.01662 2.35164 8.316 2.34609C8.61539 2.34055 8.91294 2.39404 9.19166 2.50351C9.47037 2.61299 9.72478 2.7763 9.94036 2.98412L12.7054 5.64853C12.9203 5.85413 13.0912 6.10131 13.2076 6.37502C13.3239 6.64873 13.3834 6.94325 13.3824 7.24066Z" fill="url(#paint0_linear_265_13348)"/>
<path d="M9.36801 11.7549C8.50661 10.8513 8.47368 9.45654 9.24537 8.51367L7.40691 10.285C7.1921 10.492 7.0207 10.7397 6.90273 11.0137C6.78475 11.2877 6.72257 11.5825 6.71982 11.8808C6.71707 12.1791 6.7738 12.4749 6.8867 12.751C6.9996 13.0272 7.1664 13.278 7.37736 13.4889L11.5311 17.6429C11.5969 17.7086 11.6861 17.7456 11.7791 17.7456C11.8721 17.7456 11.9613 17.7086 12.0271 17.6429C12.2389 17.4312 12.4068 17.1799 12.5214 16.9033C12.636 16.6267 12.695 16.3302 12.695 16.0308C12.695 15.7314 12.636 15.4349 12.5214 15.1583C12.4068 14.8817 12.2389 14.6304 12.0271 14.4187L9.51534 11.9069L9.52146 11.901C9.46954 11.8546 9.4174 11.8067 9.36801 11.7549Z" fill="url(#paint1_linear_265_13348)"/>
</g>
</g>
<defs>
<linearGradient id="paint0_linear_265_13348" x1="6.61825" y1="6.4829" x2="13.3822" y2="6.4829" gradientUnits="userSpaceOnUse">
<stop stop-color="#FF8B65"/>
<stop offset="1" stop-color="#FF3D56"/>
</linearGradient>
<linearGradient id="paint1_linear_265_13348" x1="6.72049" y1="13.1297" x2="12.6956" y2="13.1297" gradientUnits="userSpaceOnUse">
<stop stop-color="#FF8B65"/>
<stop offset="1" stop-color="#FF3D56"/>
</linearGradient>
<clipPath id="clip0_265_13348">
<rect width="20" height="20" fill="white"/>
</clipPath>
<clipPath id="clip1_265_13348">
<rect width="20" height="20" fill="white"/>
</clipPath>
</defs>
</svg>
